<?xml version="1.0" encoding="utf-8"?>
<!-- Generator: Adobe Illustrator 23.0.2, SVG Export Plug-In . SVG Version: 6.00 Build 0)  -->
<svg version="1.1" id="Layer_1" xmlns="http://www.w3.org/2000/svg" xmlns:xlink="http://www.w3.org/1999/xlink" x="0px" y="0px"
	 viewBox="0 0 90 60" style="enable-background:new 0 0 90 60;" xml:space="preserve">
<style type="text/css">
	.st0{fill:#5A676D;}
	.st1{fill:#E5E3E3;}
</style>
<rect class="st0" width="90" height="60"/>
<g>
	<path class="st1" d="M80.5,4.6c-23.7,0-47.3,0-71,0c-3.3,0-6,2.7-6,6c0,12.3,0,24.7,0,37c0,3.3,2.7,6,6,6h23.2l9-15.6
		c0.7-1.3,2-2,3.5-2c1.5,0,2.7,0.7,3.5,2l9,15.6h22.8c3.3,0,6-2.7,6-6c0-12.3,0-24.7,0-37C86.5,7.3,83.8,4.6,80.5,4.6z M27,41.6
		c-5.2,0-9.5-4.3-9.5-9.5s4.3-9.5,9.5-9.5s9.5,4.3,9.5,9.5S32.2,41.6,27,41.6z M63.5,41.6c-5.2,0-9.5-4.3-9.5-9.5s4.3-9.5,9.5-9.5
		s9.5,4.3,9.5,9.5S68.8,41.6,63.5,41.6z"/>
	<path class="st1" d="M32.7,33.1c-0.5-0.2-1.1,0.1-1.3,0.6c-0.7,1.9-2.4,3.1-4.4,3.1c-1.1,0-2.2-0.4-3-1.1c-0.4-0.4-1.1-0.3-1.4,0.1
		c-0.4,0.4-0.3,1.1,0.1,1.4c1.2,1,2.7,1.6,4.3,1.6c2.8,0,5.4-1.8,6.3-4.5C33.5,33.8,33.2,33.3,32.7,33.1z"/>
	<path class="st1" d="M69.4,33.1c-0.5-0.2-1.1,0.1-1.3,0.6c-0.7,1.9-2.4,3.1-4.4,3.1c-1.1,0-2.2-0.4-3-1.1c-0.4-0.4-1.1-0.3-1.4,0.1
		c-0.4,0.4-0.3,1.1,0.1,1.4c1.2,1,2.7,1.6,4.3,1.6c2.8,0,5.4-1.8,6.3-4.5C70.2,33.8,70,33.3,69.4,33.1z"/>
</g>
</svg>
